# xmcd
#
# Track frame offsets:
#	150
#	17462
#	39557
#	66387
#	81675
#	96825
#	115287
#	130775
#	147837
#	165225
#	187015
#	204425
#	227812
#	246262
#	260962
#	282145
#
# Disc length: 3995 seconds
#
# Revision: 1
# Processed by: cddbd v1.5.1PL0 Copyright (c) Steve Scherf et al.
# Submitted via: CDex 1.50Beta5
#
DISCID=ea0f9910
DTITLE=シンディ・ローパー - ベスト・オブ・ロック・バラード
DYEAR=1995
DGENRE=Rock
TTITLE0=シンディ・ローパー/トゥルー・カラーズ
TTITLE1=NENA/あなたはもういない
TTITLE2=TOTO/アウト・オブ・ラブ
TTITLE3=REO スピードワゴン/キープ・オン・ラビング・ユー
TTITLE4=ジャーニー/オープン・アームズ
TTITLE5=ラバーボーイ/ヘブン・イン・ユア・アイズ
TTITLE6=レイ・ケネディ/ジャスト・フォー・ザ・モーメント
TTITLE7=グロリア・エステファン&マイアミ・サウンド・マシーン/エニシング・フォー・ユー
TTITLE8=アナ/恋を教えて
TTITLE9=チープ・トリック/永遠の愛の炎
TTITLE10=スティーブ・ペリー/オー・シェリー
TTITLE11=マルティカ/優しさに抱かれて
TTITLE12=カーラ・ボノフ/誰かわたしの側に
TTITLE13=ダン・フォーゲルバーグ/ロンガー
TTITLE14=コック・ロビン/心のときめき
TTITLE15=TOTO/アイル・ビー・オーバー・ユー
EXTD=
EXTT0=
EXTT1=
EXTT2=
EXTT3=
EXTT4=
EXTT5=
EXTT6=
EXTT7=
EXTT8=
EXTT9=
EXTT10=
EXTT11=
EXTT12=
EXTT13=
EXTT14=
EXTT15=
PLAYORDER=
